<?xml version="1.0" encoding="utf-8"?>
<!-- Generator: Adobe Illustrator 22.1.0, SVG Export Plug-In . SVG Version: 6.00 Build 0)  -->
<svg version="1.1" id="Layer_1" xmlns="http://www.w3.org/2000/svg" xmlns:xlink="http://www.w3.org/1999/xlink" x="0px" y="0px"
	 viewBox="0 0 791 153.3" style="enable-background:new 0 0 791 153.3;" xml:space="preserve">
<style type="text/css">
	.st0{fill:#FEB801;}
</style>
<g>
	<path class="st0" d="M85.1,37.7c0,12.6-3.7,22.4-11.2,29.2c-7.4,6.9-18,10.3-31.7,10.3h-8.6v37.5H3.2V1.8h39.1
		c14.3,0,25,3.1,32.1,9.3C81.6,17.3,85.1,26.2,85.1,37.7z M33.7,52.4h5.6c4.6,0,8.2-1.3,10.9-3.9c2.7-2.6,4.1-6.1,4.1-10.7
		c0-7.6-4.2-11.4-12.7-11.4h-7.9V52.4z"/>
	<path class="st0" d="M133.6,73.6v41.1h-30.5V1.8h37c30.7,0,46,11.1,46,33.4c0,13.1-6.4,23.2-19.2,30.3l32.9,49.2h-34.6l-23.9-41.1
		H133.6z M133.6,50.7h5.7c10.7,0,16-4.7,16-14.1c0-7.8-5.2-11.7-15.7-11.7h-6V50.7z"/>
	<path class="st0" d="M315.8,58.1c0,19-4.7,33.4-14,43.3c-9.3,9.9-23,14.8-40.9,14.8c-17.7,0-31.3-5-40.7-14.9
		c-9.4-9.9-14.2-24.4-14.2-43.4c0-18.8,4.7-33.1,14.1-43C229.5,5,243.1,0,261,0c18,0,31.6,4.9,40.8,14.7
		C311.1,24.6,315.8,39,315.8,58.1z M238.1,58.1c0,21.8,7.6,32.7,22.8,32.7c7.7,0,13.4-2.7,17.2-8c3.7-5.3,5.6-13.6,5.6-24.8
		c0-11.3-1.9-19.6-5.7-25c-3.8-5.4-9.4-8.1-16.9-8.1C245.7,25,238.1,36,238.1,58.1z"/>
	<path d="M410,80.4c0,7-1.8,13.2-5.3,18.6c-3.6,5.4-8.7,9.7-15.4,12.7s-14.5,4.5-23.6,4.5c-7.5,0-13.8-0.5-18.9-1.6
		c-5.1-1.1-10.4-2.9-15.9-5.5V81.9c5.8,3,11.9,5.3,18.1,7c6.3,1.7,12,2.5,17.3,2.5c4.5,0,7.9-0.8,10-2.4c2.1-1.6,3.2-3.6,3.2-6.1
		c0-1.5-0.4-2.9-1.3-4.1c-0.8-1.2-2.2-2.3-4.1-3.5c-1.9-1.2-6.9-3.6-15-7.3c-7.4-3.3-12.9-6.6-16.6-9.7c-3.7-3.1-6.4-6.7-8.2-10.8
		c-1.8-4.1-2.7-8.9-2.7-14.4c0-10.4,3.8-18.5,11.4-24.3c7.6-5.8,18-8.7,31.2-8.7c11.7,0,23.6,2.7,35.8,8.1l-9.3,23.6
		c-10.6-4.8-19.7-7.3-27.3-7.3c-4,0-6.8,0.7-8.6,2.1c-1.8,1.4-2.7,3.1-2.7,5.2c0,2.2,1.1,4.2,3.4,5.9c2.3,1.8,8.5,4.9,18.6,9.6
		c9.7,4.4,16.5,9.1,20.3,14.1C408.1,66.4,410,72.8,410,80.4z"/>
	<path d="M477.2,114.7h-30.5v-88h-27.6V1.8h85.6v24.9h-27.5V114.7z"/>
	<path d="M590.1,114.7l-5.6-21.2h-36.7l-5.7,21.2h-33.5L545.5,1.3h40.7l37.3,113.4H590.1z M578.2,68.5L573.4,50
		c-1.1-4.1-2.5-9.4-4.1-16c-1.6-6.5-2.7-11.2-3.2-14.1c-0.5,2.6-1.4,6.9-2.7,13c-1.4,6-4.4,17.9-9.1,35.6H578.2z"/>
	<path d="M665.7,114.7h-30V1.8h66.7v24.5h-36.7v21.5h33.8v24.5h-33.8V114.7z"/>
	<path d="M751,114.7h-30V1.8h66.7v24.5H751v21.5h33.8v24.5H751V114.7z"/>
</g>
<rect y="129.3" class="st0" width="320" height="24"/>
<rect x="320" y="129.3" width="471" height="24"/>
</svg>
